<?xml version="1.0" encoding="UTF-8" standalone="no"?>
<!-- Created with Inkscape (http://www.inkscape.org/) -->

<svg
   width="269.85333"
   height="423.74768"
   viewBox="0 0 71.398691 112.11658"
   version="1.1"
   id="svg1"
   xmlns="http://www.w3.org/2000/svg"
   xmlns:svg="http://www.w3.org/2000/svg">
  <defs
     id="defs1" />
  <g
     id="layer2"
     style="display:none"
     transform="translate(-32.033986,-11.675045)">
    <rect
       style="display:inline;fill:#0050ff;fill-opacity:1;stroke:none;stroke-width:0.338666;stroke-opacity:1"
       id="rect8"
       height="135.46666"
       x="-7.1054274e-15"
       y="-6.5503158e-15"
       width="135.46666"
       rx="16.933334" />
    <rect
       style="display:none;fill:#e8abab;fill-opacity:1;stroke:none;stroke-width:0.338666;stroke-opacity:1"
       id="rect8-8"
       height="105.83333"
       x="14.816669"
       y="14.816669"
       width="105.83333"
       rx="16.933334" />
  </g>
  <g
     id="layer1"
     transform="translate(-31.417622,-7.6917097)"
     style="display:none">
    <g
       id="g6"
       transform="translate(-1.5486578,0.23333296)">
      <path
         style="display:inline;fill:none;fill-opacity:1;stroke:#ffffff;stroke-width:1.5875;stroke-linecap:round;stroke-linejoin:round;stroke-dasharray:none;stroke-opacity:1"
         d="m 23.199292,62.266665 v 9.999999 l 12.990381,7.5 17.320507,-10 4.330127,2.5 -8.660254,5 v 10 l 12.990381,7.5 51.961526,-29.999999 v -10 l -12.99038,-7.5 -21.650639,12.5 -4.330127,-2.5 12.990381,-7.5 v -9.999999 l -12.990381,-7.5 z"
         id="path15" />
      <path
         style="display:inline;fill:none;fill-opacity:1;stroke:#ffffff;stroke-width:1.5875;stroke-linecap:round;stroke-linejoin:round;stroke-dasharray:none;stroke-opacity:1"
         d="m 23.199292,62.266665 51.961522,-29.999999 12.990381,7.5 -21.650634,12.499999 12.99038,7.5 21.650639,-12.5 12.99038,7.5 -51.961526,29.999999 -12.990381,-7.5 17.320508,-9.999999 -12.990381,-7.5 -17.320507,9.999999 z"
         id="path14" />
      <path
         style="display:inline;fill:none;fill-opacity:1;stroke:#ffffff;stroke-width:1.5875;stroke-linecap:round;stroke-linejoin:round;stroke-dasharray:none;stroke-opacity:1"
         d="m 23.199292,62.266666 12.99038,7.499998 v 10.000001 l -12.99038,-7.500001 z"
         id="path6" />
      <path
         style="display:inline;fill:none;fill-opacity:1;stroke:#ffffff;stroke-width:1.5875;stroke-linecap:round;stroke-linejoin:round;stroke-dasharray:none;stroke-opacity:1"
         d="m 53.510181,59.766665 v 9.999999 l 4.330125,2.5 8.660255,-5.000001 z"
         id="path7" />
      <path
         style="display:inline;fill:none;fill-opacity:1;stroke:#ffffff;stroke-width:1.5875;stroke-linecap:round;stroke-linejoin:round;stroke-dasharray:none;stroke-opacity:1"
         d="M 62.170435,84.766663 V 94.766664 L 49.180052,87.266663 v -9.999998 z"
         id="path8" />
    </g>
  </g>
  <g
     id="layer3"
     style="display:inline;fill:none;fill-opacity:1"
     transform="translate(-33.582681,-8.941681)">
    <g
       id="g20"
       transform="translate(4.946493,3.9833556)"
       style="display:inline;fill:none;fill-opacity:1">
      <path
         style="fill:none;fill-opacity:1;stroke:#0050ff;stroke-width:2.11667;stroke-linecap:round;stroke-linejoin:round;stroke-dasharray:none;stroke-opacity:1"
         d="m 29.694522,31.016643 v 54.999998 l 17.320507,10 V 71.016642 l 17.320508,9.999999 v 24.999999 l 17.320507,10 V 46.016643 l -17.320507,-10 v 24.999999 l -17.320508,-10 V 26.016643 L 29.694522,16.016644 Z"
         id="path16" />
      <path
         style="fill:none;fill-opacity:1;stroke:#0050ff;stroke-width:2.11667;stroke-linecap:round;stroke-linejoin:round;stroke-dasharray:none;stroke-opacity:1"
         d="m 29.694522,16.016644 17.320507,-10 17.320508,10 -17.320508,9.999999 17.320508,-9.999999 V 41.016643 L 47.015029,51.016642 V 26.016643 Z"
         id="path18" />
      <path
         style="fill:none;fill-opacity:1;stroke:#0050ff;stroke-width:2.11667;stroke-linecap:round;stroke-linejoin:round;stroke-dasharray:none;stroke-opacity:1"
         d="M 47.01503,96.016642 64.335537,86.016641 v -5 L 47.01503,71.016642 Z"
         id="path22" />
      <path
         style="display:inline;fill:none;fill-opacity:1;stroke:#0050ff;stroke-width:2.11667;stroke-linecap:round;stroke-linejoin:round;stroke-dasharray:none;stroke-opacity:1"
         d="M 86.602537,120 103.92304,110 V 39.999999 l -17.320503,9.999998 -17.320508,-9.999998 17.320508,-10 17.320503,10 -17.320503,9.999998 z"
         id="path21"
         transform="translate(-4.946493,-3.9833556)" />
    </g>
  </g>
</svg>
