<?xml version="1.0" encoding="UTF-8" standalone="no"?>
<!-- Created with Inkscape (http://www.inkscape.org/) -->

<svg
   width="512"
   height="512"
   viewBox="0 0 135.46666 135.46667"
   version="1.1"
   id="svg1"
   sodipodi:docname="logo.svg"
   inkscape:export-filename="logo.svg"
   inkscape:export-xdpi="96"
   inkscape:export-ydpi="96"
   inkscape:version="1.4 (e7c3feb100, 2024-10-09)"
   xmlns:inkscape="http://www.inkscape.org/namespaces/inkscape"
   xmlns:sodipodi="http://sodipodi.sourceforge.net/DTD/sodipodi-0.dtd"
   xmlns="http://www.w3.org/2000/svg"
   xmlns:svg="http://www.w3.org/2000/svg">
  <sodipodi:namedview
     id="namedview1"
     pagecolor="#ffffff"
     bordercolor="#000000"
     borderopacity="0.25"
     inkscape:showpageshadow="2"
     inkscape:pageopacity="0.0"
     inkscape:pagecheckerboard="0"
     inkscape:deskcolor="#d1d1d1"
     showgrid="true"
     inkscape:zoom="1.5410156"
     inkscape:cx="255.67554"
     inkscape:cy="256"
     inkscape:window-width="1920"
     inkscape:window-height="998"
     inkscape:window-x="0"
     inkscape:window-y="0"
     inkscape:window-maximized="1"
     inkscape:current-layer="svg1">
    <inkscape:grid
       type="axonomgrid"
       id="grid1"
       units="px"
       originx="0"
       originy="0"
       spacingx="0.99999995"
       spacingy="1"
       empcolor="#0099e5"
       empopacity="0.30196078"
       color="#0099e5"
       opacity="0.14901961"
       empspacing="5"
       dotted="false"
       gridanglex="30"
       gridanglez="30"
       enabled="true"
       visible="true" />
  </sodipodi:namedview>
  <defs
     id="defs1" />
  <g
     id="layer2"
     style="display:inline">
    <rect
       style="display:inline;fill:#0050ff;fill-opacity:1;stroke:none;stroke-width:0.338666;stroke-opacity:1"
       id="rect8"
       height="135.46666"
       x="-7.1054274e-15"
       y="-6.5503158e-15"
       width="135.46666"
       rx="16.933334" />
    <rect
       style="display:none;fill:#e8abab;fill-opacity:1;stroke:none;stroke-width:0.338666;stroke-opacity:1"
       id="rect8-8"
       height="105.83333"
       x="14.816669"
       y="14.816669"
       width="105.83333"
       rx="16.933334" />
  </g>
  <g
     id="layer1"
     transform="translate(0.6163643,3.9833345)"
     style="display:none">
    <g
       id="g6"
       transform="translate(-1.5486578,0.23333296)">
      <path
         style="display:inline;fill:none;fill-opacity:1;stroke:#ffffff;stroke-width:1.5875;stroke-linecap:round;stroke-linejoin:round;stroke-dasharray:none;stroke-opacity:1"
         d="m 23.199292,62.266665 v 9.999999 l 12.990381,7.5 17.320507,-10 4.330127,2.5 -8.660254,5 v 10 l 12.990381,7.5 51.961526,-29.999999 v -10 l -12.99038,-7.5 -21.650639,12.5 -4.330127,-2.5 12.990381,-7.5 v -9.999999 l -12.990381,-7.5 z"
         id="path15" />
      <path
         style="display:inline;fill:none;fill-opacity:1;stroke:#ffffff;stroke-width:1.5875;stroke-linecap:round;stroke-linejoin:round;stroke-dasharray:none;stroke-opacity:1"
         d="m 23.199292,62.266665 51.961522,-29.999999 12.990381,7.5 -21.650634,12.499999 12.99038,7.5 21.650639,-12.5 12.99038,7.5 -51.961526,29.999999 -12.990381,-7.5 17.320508,-9.999999 -12.990381,-7.5 -17.320507,9.999999 z"
         id="path14" />
      <path
         style="display:inline;fill:none;fill-opacity:1;stroke:#ffffff;stroke-width:1.5875;stroke-linecap:round;stroke-linejoin:round;stroke-dasharray:none;stroke-opacity:1"
         d="m 23.199292,62.266666 12.99038,7.499998 v 10.000001 l -12.99038,-7.500001 z"
         id="path6" />
      <path
         style="display:inline;fill:none;fill-opacity:1;stroke:#ffffff;stroke-width:1.5875;stroke-linecap:round;stroke-linejoin:round;stroke-dasharray:none;stroke-opacity:1"
         d="m 53.510181,59.766665 v 9.999999 l 4.330125,2.5 8.660255,-5.000001 z"
         id="path7" />
      <path
         style="display:inline;fill:none;fill-opacity:1;stroke:#ffffff;stroke-width:1.5875;stroke-linecap:round;stroke-linejoin:round;stroke-dasharray:none;stroke-opacity:1"
         d="M 62.170435,84.766663 V 94.766664 L 49.180052,87.266663 v -9.999998 z"
         id="path8" />
    </g>
  </g>
  <g
     id="layer3"
     style="display:inline"
     transform="translate(-1.548695,2.7333632)">
    <g
       id="g20"
       transform="translate(4.946493,3.9833556)"
       style="display:inline">
      <path
         style="fill:none;fill-opacity:1;stroke:#ffffff;stroke-width:2.11667;stroke-linecap:round;stroke-linejoin:round;stroke-dasharray:none;stroke-opacity:1"
         d="m 29.694522,31.016643 v 54.999998 l 17.320507,10 V 71.016642 l 17.320508,9.999999 v 24.999999 l 17.320507,10 V 46.016643 l -17.320507,-10 v 24.999999 l -17.320508,-10 V 26.016643 L 29.694522,16.016644 Z"
         id="path16"
         sodipodi:nodetypes="cccccccccccccc" />
      <path
         style="fill:none;fill-opacity:1;stroke:#ffffff;stroke-width:2.11667;stroke-linecap:round;stroke-linejoin:round;stroke-dasharray:none;stroke-opacity:1"
         d="m 29.694522,16.016644 17.320507,-10 17.320508,10 -17.320508,9.999999 17.320508,-9.999999 V 41.016643 L 47.015029,51.016642 V 26.016643 Z"
         id="path18"
         sodipodi:nodetypes="ccccccccc" />
      <path
         style="fill:none;fill-opacity:1;stroke:#ffffff;stroke-width:2.11667;stroke-linecap:round;stroke-linejoin:round;stroke-dasharray:none;stroke-opacity:1"
         d="M 47.01503,96.016642 64.335537,86.016641 v -5 L 47.01503,71.016642 Z"
         id="path22"
         sodipodi:nodetypes="ccccc" />
      <path
         style="display:inline;fill:none;fill-opacity:1;stroke:#ffffff;stroke-width:2.11667;stroke-linecap:round;stroke-linejoin:round;stroke-dasharray:none;stroke-opacity:1"
         d="M 86.602537,120 103.92304,110 V 39.999999 l -17.320503,9.999998 -17.320508,-9.999998 17.320508,-10 17.320503,10 -17.320503,9.999998 z"
         id="path21"
         sodipodi:nodetypes="ccccccccc"
         transform="translate(-4.946493,-3.9833556)" />
    </g>
  </g>
</svg>
