<?xml version="1.0" encoding="UTF-8" standalone="no"?>
<!-- Created with Inkscape (http://www.inkscape.org/) -->

<svg
   width="512"
   height="512"
   viewBox="0 0 135.46666 135.46667"
   version="1.1"
   id="svg1"
   xmlns="http://www.w3.org/2000/svg"
   xmlns:svg="http://www.w3.org/2000/svg">
  <defs
     id="defs1" />
  <g
     id="layer2"
     style="display:inline">
    <rect
       style="display:inline;fill:#0050ff;fill-opacity:1;stroke:none;stroke-width:0.338666;stroke-opacity:1"
       id="rect8"
       height="135.46666"
       x="-7.1054274e-15"
       y="-6.5503158e-15"
       width="135.46666"
       rx="16.933334" />
    <rect
       style="display:none;fill:#e8abab;fill-opacity:1;stroke:none;stroke-width:0.338666;stroke-opacity:1"
       id="rect8-8"
       height="105.83333"
       x="14.816669"
       y="14.816669"
       width="105.83333"
       rx="16.933334" />
  </g>
  <g
     id="layer1"
     transform="translate(0.6163643,3.9833345)"
     style="display:none">
    <g
       id="g6"
       transform="translate(-1.5486578,0.23333296)">
      <path
         style="display:inline;fill:none;fill-opacity:1;stroke:#ffffff;stroke-width:1.5875;stroke-linecap:round;stroke-linejoin:round;stroke-dasharray:none;stroke-opacity:1"
         d="m 23.199292,62.266665 v 9.999999 l 12.990381,7.5 17.320507,-10 4.330127,2.5 -8.660254,5 v 10 l 12.990381,7.5 51.961526,-29.999999 v -10 l -12.99038,-7.5 -21.650639,12.5 -4.330127,-2.5 12.990381,-7.5 v -9.999999 l -12.990381,-7.5 z"
         id="path15" />
      <path
         style="display:inline;fill:none;fill-opacity:1;stroke:#ffffff;stroke-width:1.5875;stroke-linecap:round;stroke-linejoin:round;stroke-dasharray:none;stroke-opacity:1"
         d="m 23.199292,62.266665 51.961522,-29.999999 12.990381,7.5 -21.650634,12.499999 12.99038,7.5 21.650639,-12.5 12.99038,7.5 -51.961526,29.999999 -12.990381,-7.5 17.320508,-9.999999 -12.990381,-7.5 -17.320507,9.999999 z"
         id="path14" />
      <path
         style="display:inline;fill:none;fill-opacity:1;stroke:#ffffff;stroke-width:1.5875;stroke-linecap:round;stroke-linejoin:round;stroke-dasharray:none;stroke-opacity:1"
         d="m 23.199292,62.266666 12.99038,7.499998 v 10.000001 l -12.99038,-7.500001 z"
         id="path6" />
      <path
         style="display:inline;fill:none;fill-opacity:1;stroke:#ffffff;stroke-width:1.5875;stroke-linecap:round;stroke-linejoin:round;stroke-dasharray:none;stroke-opacity:1"
         d="m 53.510181,59.766665 v 9.999999 l 4.330125,2.5 8.660255,-5.000001 z"
         id="path7" />
      <path
         style="display:inline;fill:none;fill-opacity:1;stroke:#ffffff;stroke-width:1.5875;stroke-linecap:round;stroke-linejoin:round;stroke-dasharray:none;stroke-opacity:1"
         d="M 62.170435,84.766663 V 94.766664 L 49.180052,87.266663 v -9.999998 z"
         id="path8" />
    </g>
  </g>
  <g
     id="layer3"
     style="display:inline">
    <g
       id="g20"
       transform="translate(4.946493,3.9833556)">
      <path
         style="fill:none;fill-opacity:1;stroke:#ffffff;stroke-width:2.11667;stroke-linecap:round;stroke-linejoin:round;stroke-dasharray:none;stroke-opacity:1"
         d="m 29.694522,31.016643 v 54.999998 l 17.320507,10 V 71.016642 l 17.320508,9.999999 v 24.999999 l 17.320507,10 V 46.016643 l -17.320507,-10 v 24.999999 l -17.320508,-10 L 47.631394,27.5 29.694522,16.016644 Z"
         id="path16" />
      <path
         style="fill:none;fill-opacity:1;stroke:#ffffff;stroke-width:2.11667;stroke-linecap:round;stroke-linejoin:round;stroke-dasharray:none;stroke-opacity:1"
         d="M 29.694522,16.016644 42.684902,8.5166439 60.621777,19.999999 47.631394,27.5 60.621777,19.999999 60.00541,43.516643 47.015029,51.016642 47.631394,27.5 Z"
         id="path18" />
      <path
         style="fill:none;fill-opacity:1;stroke:#ffffff;stroke-width:2.11667;stroke-linecap:round;stroke-linejoin:round;stroke-dasharray:none;stroke-opacity:1"
         d="m 47.01503,96.016642 12.99038,-7.500001 v -9.999999 l -12.99038,-7.5 z"
         id="path22" />
      <path
         style="fill:none;fill-opacity:1;stroke:#ffffff;stroke-width:2.11667;stroke-linecap:round;stroke-linejoin:round;stroke-dasharray:none;stroke-opacity:1"
         d="m 60.00541,43.516641 4.330126,2.500001 z"
         id="path23" />
    </g>
    <path
       style="fill:none;fill-opacity:1;stroke:#ffffff;stroke-width:2.11667;stroke-linecap:round;stroke-linejoin:round;stroke-dasharray:none;stroke-opacity:1"
       d="m 86.602537,120 12.99038,-7.5 V 42.499999 l -12.99038,7.499998 -17.320508,-9.999998 12.990382,-7.500001 17.320506,10.000001 -12.99038,7.499998 z"
       id="path21" />
  </g>
</svg>
