<svg xmlns="http://www.w3.org/2000/svg"
     viewBox="0 0 135.46666 135.46666"
     width="512" height="512">

  <!-- Fondo azul -->
  <rect width="135.46666" height="135.46666"
        fill="#0050ff" rx="16.933334"/>

  <!-- Logo -->
  <g fill="none" stroke="#fff" stroke-width="4"
     stroke-linecap="round" stroke-linejoin="round"
     vector-effect="non-scaling-stroke"
     transform="translate(3.397798,6.716718)">

    <!-- Forma principal -->
    <path d="M29.695 31.017v55l17.321 10v-25l17.321 10v25l17.321 10V46.017l-17.321-10v25l-17.321-10v-25l-17.321-10z"/>

    <!-- Parte superior del logo -->
    <path d="M29.695 16.017l17.321-10 17.321 10-17.321 10 17.321-10v25l-17.321 10v-25z"/>

    <!-- Pieza lateral derecha -->
    <path d="M47.015 96.017l17.321-10v-5l-17.321-10z"/>
    

    <!-- Pieza derecha grande (corregida) -->
   <path d="M81.656 116.017
         l17.32-10
         V40
         l-17.32 10
         l-17.321-15
         l17.321-10
         l17.32 10
         l-17.32 10z"/>

  </g>
</svg>
