<svg xmlns="http://www.w3.org/2000/svg"
     viewBox="-2 -2 20 22"
     width="200" height="220">

  <g fill="none" stroke="currentColor" stroke-width="1.2"
     vector-effect="non-scaling-stroke"
     stroke-linecap="round" stroke-linejoin="round">

    <path d="M -0.444,4.744 3.020,6.744 6.484,4.744 9.948,6.744 13.412,4.744 6.484,0.744 Z"/>

    <path d="M 6.484,4.744 3.020,2.744 6.484,0.744 9.948,2.744 Z"/>

    <path d="M -0.444,4.744 V 8.744 L 3.020,10.744 V 6.744 L 6.484,8.744 V 12.744 L 3.020,10.744 -0.444,8.744 Z"/>

    <path d="M 6.484,8.744 9.948,6.744 v 4 l 3.464,-2 V 4.744 Z"/>

    <path d="M 3.020,10.744 6.484,12.744 9.948,10.744 13.412,8.744 v 4 l -6.928,4 -6.928,-4 v -4 Z"/>

    <path d="M 3.020,10.744 v 4 l 3.464,2 v -4 l 3.464,-2 v 4 l -3.464,2 -3.464,-2 Z"/>
  </g>
</svg>
