<?xml version="1.0" encoding="UTF-8" standalone="no"?>
<!-- Created with Inkscape (http://www.inkscape.org/) -->

<svg
   width="512"
   height="512"
   viewBox="0 0 135.46666 135.46667"
   version="1.1"
   id="svg1"
   xmlns="http://www.w3.org/2000/svg"
   xmlns:svg="http://www.w3.org/2000/svg">
  <defs
     id="defs1" />
  <g
     id="layer2"
     style="display:inline">
    <rect
       style="display:inline;fill:#0050ff;fill-opacity:1;stroke:none;stroke-width:0.338666;stroke-opacity:1"
       id="rect8"
       height="135.46666"
       x="-7.1054274e-15"
       y="-6.5503158e-15"
       width="135.46666"
       rx="16.933334" />
    <rect
       style="display:none;fill:#e8abab;fill-opacity:1;stroke:none;stroke-width:0.338666;stroke-opacity:1"
       id="rect8-8"
       height="105.83333"
       x="14.816669"
       y="14.816669"
       width="105.83333"
       rx="16.933334" />
  </g>
  <g
     id="layer1"
     transform="translate(0.6163643,3.9833345)"
     style="display:none">
    <g
       id="g6"
       transform="translate(-1.5486578,0.23333296)">
      <path
         style="display:inline;fill:none;fill-opacity:1;stroke:#ffffff;stroke-width:1.5875;stroke-linecap:round;stroke-linejoin:round;stroke-dasharray:none;stroke-opacity:1"
         d="m 23.199292,62.266665 v 9.999999 l 12.990381,7.5 17.320507,-10 4.330127,2.5 -8.660254,5 v 10 l 12.990381,7.5 51.961526,-29.999999 v -10 l -12.99038,-7.5 -21.650639,12.5 -4.330127,-2.5 12.990381,-7.5 v -9.999999 l -12.990381,-7.5 z"
         id="path15" />
      <path
         style="display:inline;fill:none;fill-opacity:1;stroke:#ffffff;stroke-width:1.5875;stroke-linecap:round;stroke-linejoin:round;stroke-dasharray:none;stroke-opacity:1"
         d="m 23.199292,62.266665 51.961522,-29.999999 12.990381,7.5 -21.650634,12.499999 12.99038,7.5 21.650639,-12.5 12.99038,7.5 -51.961526,29.999999 -12.990381,-7.5 17.320508,-9.999999 -12.990381,-7.5 -17.320507,9.999999 z"
         id="path14" />
      <path
         style="display:inline;fill:none;fill-opacity:1;stroke:#ffffff;stroke-width:1.5875;stroke-linecap:round;stroke-linejoin:round;stroke-dasharray:none;stroke-opacity:1"
         d="m 23.199292,62.266666 12.99038,7.499998 v 10.000001 l -12.99038,-7.500001 z"
         id="path6" />
      <path
         style="display:inline;fill:none;fill-opacity:1;stroke:#ffffff;stroke-width:1.5875;stroke-linecap:round;stroke-linejoin:round;stroke-dasharray:none;stroke-opacity:1"
         d="m 53.510181,59.766665 v 9.999999 l 4.330125,2.5 8.660255,-5.000001 z"
         id="path7" />
      <path
         style="display:inline;fill:none;fill-opacity:1;stroke:#ffffff;stroke-width:1.5875;stroke-linecap:round;stroke-linejoin:round;stroke-dasharray:none;stroke-opacity:1"
         d="M 62.170435,84.766663 V 94.766664 L 49.180052,87.266663 v -9.999998 z"
         id="path8" />
    </g>
  </g>
  <g
     id="layer3">
    <g
       id="g20"
       transform="translate(4.946493,3.9833556)">
      <path
         style="fill:none;fill-opacity:1;stroke:#ffffff;stroke-width:2.11667;stroke-linecap:round;stroke-linejoin:round;stroke-dasharray:none;stroke-opacity:1"
         d="m 30.310888,32.499999 v 54.999998 l 17.320507,9.999999 V 72.499997 l 17.320508,10 V 107.5 l 17.320507,10 V 47.499998 L 64.951903,37.499999 v 24.999999 l -17.320508,-10 V 27.499999 l -17.320507,-10 z"
         id="path16" />
      <path
         style="fill:none;fill-opacity:1;stroke:#ffffff;stroke-width:2.11667;stroke-linecap:round;stroke-linejoin:round;stroke-dasharray:none;stroke-opacity:1"
         d="M 82.272411,117.5 95.262791,110 V 39.999999 l -12.99038,7.499998 -17.320508,-9.999998 12.99038,-7.500001 17.320508,10.000001 V 110 Z"
         id="path17" />
      <path
         style="fill:none;fill-opacity:1;stroke:#ffffff;stroke-width:2.11667;stroke-linecap:round;stroke-linejoin:round;stroke-dasharray:none;stroke-opacity:1"
         d="M 30.310889,17.499999 43.301269,9.9999997 60.621777,19.999999 47.631394,27.5 60.621777,19.999999 v 25 L 47.631394,52.499998 V 27.5 Z"
         id="path18" />
      <path
         style="fill:none;fill-opacity:1;stroke:#ffffff;stroke-width:2.11667;stroke-linecap:round;stroke-linejoin:round;stroke-dasharray:none;stroke-opacity:1"
         d="m 60.621777,44.999999 4.330126,2.499998 z"
         id="path19" />
      <path
         style="fill:none;fill-opacity:1;stroke:#ffffff;stroke-width:2.11667;stroke-linecap:round;stroke-linejoin:round;stroke-dasharray:none;stroke-opacity:1"
         d="M 47.631394,97.499997 60.621777,89.999996 V 79.999998 L 47.631394,72.499997 Z"
         id="path20" />
    </g>
  </g>
</svg>
